HIERARCHY
ROOT Bip001_Pelvis
{
  OFFSET 7.937 94.8971 -8.5489
  CHANNELS 6 Xposition Yposition Zposition Zrotation Xrotation Yrotation
  JOINT Bip001_Spine
  {
    OFFSET 1.44608e-005 10.4157 -0.0118244
    CHANNELS 3 Zrotation Xrotation Yrotation
    JOINT Bip001_L_Thigh
    {
      OFFSET 11.2582 -10.4157 0.0118432
      CHANNELS 3 Zrotation Xrotation Yrotation
      JOINT Bip001_L_Calf
      {
        OFFSET -0.720717 -44.8687 0.366937
        CHANNELS 3 Zrotation Xrotation Yrotation
        JOINT Bip001_L_Foot
        {
          OFFSET -0.664439 -41.3745 -3.62995
          CHANNELS 3 Zrotation Xrotation Yrotation
          JOINT Bip001_L_Toe0
          {
            OFFSET 0.0541047 -10.4146 13.4033
            CHANNELS 3 Zrotation Xrotation Yrotation
            End Site
            {
              OFFSET -1.04503e-005 0 7.70137
            }
          }
        }
      }
    }
    JOINT Bip001_R_Thigh
    {
      OFFSET -11.2582 -10.4156 0.0118122
      CHANNELS 3 Zrotation Xrotation Yrotation
      JOINT Bip001_R_Calf
      {
        OFFSET 0.72059 -44.8687 0.36676
        CHANNELS 3 Zrotation Xrotation Yrotation
        JOINT Bip001_R_Foot
        {
          OFFSET 0.664321 -41.3745 -3.62979
          CHANNELS 3 Zrotation Xrotation Yrotation
          JOINT Bip001_R_Toe0
          {
            OFFSET -0.05417 -10.4146 13.4033
            CHANNELS 3 Zrotation Xrotation Yrotation
            End Site
            {
              OFFSET -1.04873e-005 0 7.70137
            }
          }
        }
      }
    }
    JOINT Bip001_Spine1
    {
      OFFSET 1.90638e-005 14.8539 1.10727
      CHANNELS 3 Zrotation Xrotation Yrotation
      JOINT Bip001_Spine2
      {
        OFFSET 2.28934e-005 14.7848 -1.7233
        CHANNELS 3 Zrotation Xrotation Yrotation
        JOINT Bip001_Neck
        {
          OFFSET 2.24514e-005 15.6905 -0.498826
          CHANNELS 3 Zrotation Xrotation Yrotation
          JOINT Bip001_L_Clavicle
          {
            OFFSET 6.17691 -0.000591152 0.00852867
            CHANNELS 3 Zrotation Xrotation Yrotation
            JOINT Bip001_L_UpperArm
            {
              OFFSET 11.773 -0.0611878 0.00197697
              CHANNELS 3 Zrotation Xrotation Yrotation
              JOINT Bip001_L_Forearm
              {
                OFFSET 26.4515 0.0817568 -2.19579
                CHANNELS 3 Zrotation Xrotation Yrotation
                JOINT Bip001_L_Hand
                {
                  OFFSET 32.8677 0.156744 1.67112
                  CHANNELS 3 Zrotation Xrotation Yrotation
                  JOINT Bip001_L_Finger0
                  {
                    OFFSET 6.16268 -2.25226 6.01674
                    CHANNELS 3 Zrotation Xrotation Yrotation
                    End Site
                    {
                      OFFSET 4.30499 -1.46662 0.618148
                    }
                  }
                  JOINT Bip001_L_Finger1
                  {
                    OFFSET 11.2957 -0.718374 -0.201963
                    CHANNELS 3 Zrotation Xrotation Yrotation
                    End Site
                    {
                      OFFSET 6.31952 -0.405163 -0.0802303
                    }
                  }
                }
              }
            }
          }
          JOINT Bip001_R_Clavicle
          {
            OFFSET -6.17691 -0.000574027 0.00851165
            CHANNELS 3 Zrotation Xrotation Yrotation
            JOINT Bip001_R_UpperArm
            {
              OFFSET -11.773 -0.0611516 0.00194365
              CHANNELS 3 Zrotation Xrotation Yrotation
              JOINT Bip001_R_Forearm
              {
                OFFSET -26.4514 0.0822334 -2.19736
                CHANNELS 3 Zrotation Xrotation Yrotation
                JOINT Bip001_R_Hand
                {
                  OFFSET -32.8677 0.156817 1.67144
                  CHANNELS 3 Zrotation Xrotation Yrotation
                  JOINT Bip001_R_Finger0
                  {
                    OFFSET -6.1627 -2.25224 6.0167
                    CHANNELS 3 Zrotation Xrotation Yrotation
                    End Site
                    {
                      OFFSET -4.30499 -1.46662 0.618134
                    }
                  }
                  JOINT Bip001_R_Finger1
                  {
                    OFFSET -11.2958 -0.718344 -0.201994
                    CHANNELS 3 Zrotation Xrotation Yrotation
                    End Site
                    {
                      OFFSET -6.31952 -0.405146 -0.0802475
                    }
                  }
                }
              }
            }
          }
          JOINT Bip001_Head
          {
            OFFSET 1.11782e-005 11.4912 2.09908
            CHANNELS 3 Zrotation Xrotation Yrotation
            End Site
            {
              OFFSET 2.95144e-005 21.2823 -2.83069e-005
            }
          }
        }
      }
    }
  }
}
MOTION
Frames:	13
Frame Time:	0.04
3.78848 95.6981 -7.4703 -0.72646 -1.2287 7.3406 -0.0219116 0.358645 0.944318 8.41107 -7.10533 7.07946 -0.656776 12.4971 -3.35803 -5.47169 -3.78629 -3.02022 0.543135 -9.90614 0.0127 -4.41809 -2.89784 -1.19713 1.0117 13.7681 1.02464 -2.45129 -8.56809 -14.9657 -0.600062 -11.4189 0.0315391 -0.159203 0.715987 1.88607 -0.158343 0.715986 1.88608 -1.749 -2.59689 -3.37997 -28.5918 7.6623 -11.0593 -49.5744 37.5691 9.2506 12.96 4.71383 -24.3626 -5.6661 -0.457769 -0.475706 -0 -1.27222e-014 -0 1.59028e-015 -1.27222e-014 -0 1.42825 4.42032 20.2216 8.97631 -35.4258 46.3612 -22.7347 -3.63725 26.8796 -23.6124 1.26443 -9.83579 -0 0 1.39149e-015 3.18055e-015 -7.95139e-016 -5.96354e-016 -1.11966 1.09271 -3.50692 
3.80047 95.7021 -7.52918 -0.754627 -1.36334 7.07624 -0.0422277 0.421978 0.856531 8.50257 -7.01174 7.23436 -0.664248 12.5313 -3.17438 -5.48116 -3.81462 -3.03499 0.546383 -9.90242 0.0289828 -4.36131 -2.92146 -0.802824 1.0483 13.7445 0.835284 -2.39892 -8.49425 -14.8356 -0.622473 -11.4182 0.0558636 -0.220588 0.842318 1.71056 -0.220647 0.842314 1.71058 -1.82014 -2.55387 -3.07573 -28.3889 7.62364 -10.9671 -49.7208 38.0193 9.47496 12.81 4.36102 -24.3588 -5.6428 -0.49125 -0.592951 -1.59028e-015 6.36111e-015 1.59028e-015 -3.18055e-015 3.18056e-015 1.59028e-015 2.20518 4.57304 20.2662 10.639 -35.8379 45.8683 -23.8537 -4.4291 31.5559 -25.4247 2.77329 -11.1796 3.18055e-015 -7.95139e-016 4.37326e-015 -0 0 5.76476e-015 -0.795823 0.917222 -3.30769 
3.82845 95.6955 -7.60748 -0.801643 -1.46453 6.7768 -0.0422977 0.468139 0.862546 8.55196 -7.01461 7.04167 -0.711451 12.6867 -2.77657 -5.46897 -3.90707 -2.99355 0.553393 -9.90043 0.0668016 -4.35765 -2.99654 -0.95516 0.999995 13.7892 0.997819 -2.30043 -8.45326 -14.5552 -0.663253 -11.4172 0.0838362 -0.225468 0.934581 1.72289 -0.225482 0.934584 1.72294 -1.84322 -2.47842 -3.00816 -28.3853 7.60147 -11.0807 -49.8046 38.5628 9.41206 12.7114 4.33976 -23.9422 -5.76161 -0.502774 -0.692595 1.59028e-015 -3.18055e-015 1.59028e-015 1.59028e-015 -3.18056e-015 -0 4.88025 5.11529 19.9156 13.4809 -37.449 46.048 -28.4921 -2.30218 38.6939 -27.1577 4.69929 -12.7379 4.77083e-015 0 1.78906e-015 3.18055e-015 0 -2.38542e-015 -0.783888 0.428973 -3.25932 
3.87025 95.6992 -7.67755 -0.815581 -1.57058 6.68373 -0.0294754 0.498166 0.832308 8.53401 -6.97392 7.04939 -0.717981 12.7237 -2.68435 -5.44485 -3.90509 -2.96024 0.551042 -9.89702 0.0499429 -4.43752 -2.95135 -1.06831 1.04431 13.7306 0.970851 -2.18978 -8.41025 -14.3031 -0.735866 -11.4116 0.118377 -0.193941 0.994923 1.66169 -0.193941 0.994924 1.66169 -1.70301 -2.58323 -3.11527 -28.8185 7.66801 -10.9382 -49.9706 38.9376 9.42788 12.8034 4.33302 -23.6032 -5.76262 -0.486345 -0.444978 -1.59028e-015 -3.18055e-015 -1.59028e-015 -1.59028e-015 -3.18056e-015 -1.59028e-015 7.72901 5.87571 19.4082 21.7136 -41.9136 48.1169 -34.1053 1.43325 51.7582 -24.6909 5.92662 -13.2109 -1.59028e-015 0 7.25564e-015 -3.18055e-015 0 8.05078e-015 -1.22738 0.428257 -3.22191 
3.92864 95.6885 -7.73262 -0.8272 -1.66892 6.73984 0.00125856 0.544993 0.741012 8.50423 -7.0445 7.65198 -0.590604 12.9227 -3.07122 -5.40786 -3.94753 -3.14441 0.548726 -9.89601 0.0331173 -4.5029 -2.92535 -0.84474 1.09988 13.7274 0.701846 -2.04011 -8.43625 -14.2206 -0.827355 -11.391 0.131296 -0.141228 1.08907 1.47885 -0.14276 1.08907 1.47881 -1.98971 -3.03295 -2.99791 -28.5584 8.06834 -10.6412 -50.1638 38.7668 8.95424 12.6819 4.56474 -23.3361 -5.65915 -0.474317 -0.421575 1.59028e-015 -6.36111e-015 -1.59028e-015 -1.59028e-015 -6.36111e-015 -1.59028e-015 11.0784 6.92234 18.444 32.5838 -47.3964 49.8128 -37.5168 4.34573 69.2919 -19.329 5.708 -10.8929 -3.18055e-015 -7.95139e-016 1.98785e-015 -3.18055e-015 0 1.59028e-015 -1.31517 0.725937 -3.15 
4.01687 95.6751 -7.79751 -0.786451 -1.72013 6.84645 0.000399667 0.57708 0.640648 8.42197 -7.13632 7.68495 -0.602213 13.0645 -3.1624 -5.31758 -3.983 -3.07867 0.548014 -9.89906 0.0255682 -4.58951 -2.97086 -0.597882 1.11928 13.8293 0.423855 -1.89998 -8.49767 -14.1737 -0.872454 -11.3775 0.135501 -0.130244 1.15471 1.27681 -0.129712 1.15469 1.27681 -2.34149 -3.16491 -2.85819 -28.3965 8.26074 -10.6052 -50.1552 38.4483 8.83993 12.7221 4.76463 -23.5674 -5.66691 -0.456609 -0.622909 1.59028e-015 9.54166e-015 1.59028e-015 1.59028e-015 6.36111e-015 1.59028e-015 14.791 7.61362 17.2736 36.8249 -50.8162 45.8225 -37.5633 4.42805 84.799 -13.9193 4.02252 -8.42232 3.18055e-015 1.59028e-015 -7.95139e-016 3.18055e-015 1.59028e-015 -3.97569e-016 -1.17162 0.603228 -3.13809 
4.12307 95.6665 -7.83344 -0.715147 -1.76019 7.01774 -0.00773367 0.58586 0.558458 8.30721 -7.17292 7.4233 -0.695306 13.1182 -3.04781 -5.20489 -3.97987 -2.99871 0.548564 -9.89998 0.0254246 -4.71434 -2.94902 -0.214689 1.20644 13.8854 0.0765978 -1.7892 -8.56462 -14.2716 -0.918221 -11.3582 0.120825 -0.165535 1.17092 1.11395 -0.165535 1.17092 1.11395 -2.46299 -3.09155 -2.89632 -28.2134 8.23336 -10.7522 -50.6469 38.6925 9.18172 12.6864 3.66387 -24.1439 -5.70188 -0.50269 -0.411782 -0 -9.54166e-015 -0 -1.59028e-015 -3.18056e-015 1.59028e-015 18.8568 8.16591 16.1395 28.2837 -47.9749 31.0392 -33.129 1.28296 94.8404 -10.7415 3.73536 -4.90528 6.36111e-015 -1.59028e-015 -0 3.18055e-015 -3.18056e-015 -1.59028e-015 -1.10764 0.418135 -3.2275 
4.26443 95.6636 -7.83818 -0.589635 -1.85433 7.07045 -0.0250544 0.655593 0.455611 8.13148 -7.10712 7.64033 -0.67056 13.0916 -3.0357 -5.12188 -3.94608 -3.14941 0.54591 -9.91286 0.00679229 -4.90689 -2.94399 -0.171911 1.18965 13.9884 -0.135738 -1.58974 -8.65602 -14.047 -0.962995 -11.3584 0.153044 -0.207879 1.31035 0.909173 -0.20788 1.31036 0.909173 -2.86999 -3.80004 -2.82581 -27.6705 8.7634 -10.1376 -50.8134 39.1728 8.81729 12.7965 3.34015 -24.4234 -5.50766 -0.425884 -0.990837 -1.59028e-015 -3.18055e-015 3.18055e-015 8.82782e-032 -3.18056e-015 1.59028e-015 22.149 9.25039 15.1017 21.6164 -41.467 15.1079 -29.6464 0.0843762 102.422 -8.91295 3.68447 -1.95419 3.18055e-015 3.18055e-015 1.59028e-015 -8.82782e-032 3.18056e-015 1.59028e-015 -0.908252 0.834927 -3.28774 
4.39584 95.6564 -7.84855 -0.481034 -1.88699 6.97322 -0.0538853 0.681919 0.393072 8.00106 -7.02992 8.17763 -0.61582 13.0709 -3.37389 -5.02579 -3.95394 -3.19285 0.546459 -9.91379 0.00705591 -5.08267 -3.01308 -0.341806 1.12083 14.1458 -0.0449046 -1.41233 -8.74759 -13.7935 -1.00319 -11.3596 0.17652 -0.261258 1.36295 0.784006 -0.26371 1.36295 0.783927 -2.85318 -3.93285 -2.73428 -27.5804 8.92465 -10.2004 -50.9739 38.6499 8.74657 13.0559 3.77028 -24.7463 -5.32838 -0.41688 -0.776694 3.18055e-015 0 -6.36111e-015 8.82782e-032 3.18056e-015 -1.59028e-015 25.6118 9.90818 14.4564 18.6391 -32.2321 1.80751 -30.201 -0.875435 105.759 -5.68612 3.5441 -1.73322 3.18055e-015 1.59028e-015 3.18055e-015 -0 0 3.18055e-015 -1.05193 0.79627 -3.15791 
4.53127 95.6532 -7.83705 -0.452516 -2.06666 6.62005 -0.0533009 0.710392 0.384706 7.94874 -6.79859 7.98107 -0.762802 13.1294 -3.23269 -4.89135 -4.10165 -2.81998 0.554158 -9.90226 0.0477949 -5.14306 -2.92974 0.0465653 1.06982 14.1635 -0.186904 -1.26352 -8.72607 -13.6503 -1.00341 -11.3674 0.190917 -0.264769 1.4199 0.767553 -0.264843 1.4199 0.767605 -3.04054 -3.74834 -2.57915 -27.437 8.88078 -10.4981 -51.0241 38.6743 8.9449 13.1982 4.02026 -25.0507 -5.19036 -0.402717 -0.810911 1.59028e-015 6.36111e-015 -3.18055e-015 -1.59028e-015 3.18056e-015 -0 28.9581 10.3853 14.5825 20.3583 -21.8369 -8.76874 -30.4873 -0.403204 103.442 -1.59099 4.18862 -3.26287 1.59028e-015 -8.34896e-015 -3.18055e-015 -0 -1.07344e-014 -0 -0.89865 0.790859 -3.09752 
4.64926 95.638 -7.87844 -0.493549 -2.05799 6.25443 -0.0515218 0.715001 0.339537 7.95165 -6.83809 7.99831 -0.837389 13.3378 -3.22338 -4.78877 -4.29214 -2.48893 0.565274 -9.88592 0.108007 -5.17759 -3.0835 0.225176 1.00709 14.2408 -0.234693 -1.09729 -8.70839 -13.3795 -1.02247 -11.3743 0.22901 -0.263351 1.42923 0.673846 -0.263655 1.42924 0.675239 -3.10472 -3.72751 -2.35306 -27.1039 8.87636 -10.5351 -51.6601 39.8141 9.25118 13.5375 3.00323 -25.2778 -5.28961 -0.689212 -0.441801 -1.59028e-015 3.18055e-015 3.18055e-015 -1.59028e-015 3.18056e-015 -0 30.8658 10.652 14.4547 26.3374 -12.9126 -14.5659 -29.6356 2.1584 95.5521 3.07269 3.58044 -7.95838 1.59028e-015 7.7526e-015 -2.68359e-015 1.59028e-015 8.4235e-015 -2.73329e-015 -0.745708 0.819375 -2.93087 
4.90843 95.6382 -7.70552 -0.195259 -2.34682 6.09815 -0.08067 0.782435 0.25107 7.50223 -6.25451 7.90006 -0.812132 13.0109 -3.33254 -4.65877 -4.34639 -2.11792 0.574894 -9.86852 0.162118 -5.6965 -2.78714 -0.856838 0.891856 14.3965 0.454981 -0.848803 -8.9348 -12.7043 -1.08412 -11.3777 0.285783 -0.32956 1.56416 0.501839 -0.32959 1.56416 0.501585 -3.23919 -3.68461 -2.17071 -27.1189 8.93443 -10.6704 -51.6009 39.8973 9.10594 13.4286 2.69439 -25.2434 -5.35423 -0.681245 -0.297176 3.18055e-015 -3.18055e-015 -1.59028e-015 1.59028e-015 0 -0 32.7206 10.9309 14.483 31.6608 -7.91618 -16.9784 -27.3059 5.31893 84.3737 10.7403 1.48869 -15.1945 6.36111e-015 -4.77083e-015 3.18055e-015 6.36111e-015 -3.18056e-015 3.18055e-015 -0.575865 0.744567 -2.83026 
4.98188 95.6203 -7.86224 -0.44146 -2.36822 5.67518 0.00106316 0.788535 0.211087 7.68103 -6.52055 7.28051 -1.06789 13.5385 -2.83623 -4.52524 -4.64534 -1.57652 0.584918 -9.85192 0.22947 -5.54671 -2.94834 -0.550336 0.781169 14.2946 0.354235 -0.678389 -8.72597 -12.4527 -1.10023 -11.3765 0.318472 -0.170485 1.57677 0.419447 -0.170038 1.57677 0.419516 -3.33103 -3.67816 -1.94987 -27.0939 9.07427 -10.9485 -51.6556 39.9149 9.0785 13.3518 2.6216 -25.2104 -5.35199 -0.513806 -0.570767 -0 -6.36111e-015 -0 1.59028e-015 0 -1.59028e-015 34.0143 11.2078 14.7309 38.2883 4.74269 -16.8534 -29.5877 2.4963 66.9924 13.2736 0.519258 -18.5582 -3.53112e-031 6.36111e-015 3.18055e-015 3.18055e-015 6.36111e-015 6.36111e-015 -0.69517 0.661619 -2.61386 
